<svg width="32" height="32" viewBox="0 0 32 32" fill="none" xmlns="http://www.w3.org/2000/svg">
<path d="M28.3548 27.9973H3.64409C3.16774 27.9973 2.72758 27.7432 2.48942 27.3306C2.25125 26.9181 2.25125 26.4099 2.48942 25.9973L14.8441 4.66399C15.0825 4.25214 15.5222 3.99854 15.9981 3.99854C16.4739 3.99854 16.9137 4.25214 17.1521 4.66399L29.5068 25.9973C29.7448 26.4096 29.7449 26.9176 29.5071 27.3301C29.2693 27.7425 28.8295 27.9968 28.3534 27.9973H28.3548ZM14.6668 21.3307V23.9973H15.9108H15.9974H16.0841H17.3308V21.3307H14.6668ZM14.6668 11.9973V18.664H17.3334V11.9973H14.6668Z" fill="#EFD700"/>
</svg>
