<svg width="28" height="28" viewBox="0 0 28 28" fill="none" xmlns="http://www.w3.org/2000/svg">
<path d="M13.9998 27.3334C6.63604 27.3334 0.666504 21.3638 0.666504 14C0.666504 6.63622 6.63604 0.666687 13.9998 0.666687C21.3636 0.666687 27.3332 6.63622 27.3332 14C27.3251 21.3605 21.3603 27.3253 13.9998 27.3334ZM13.9785 24.6667H13.9998C19.8888 24.6608 24.6588 19.8836 24.6558 13.9947C24.6529 8.10574 19.8781 3.33336 13.9892 3.33336C8.10022 3.33336 3.32545 8.10574 3.3225 13.9947C3.31956 19.8836 8.08955 24.6608 13.9785 24.6667ZM11.3332 20.6667L5.99984 15.3334L7.87984 13.4534L11.3332 16.8934L20.1198 8.10669L21.9998 10L11.3332 20.6667Z" fill="#64BC47"/>
</svg>
