<svg width="36" height="43" viewBox="0 0 36 43" fill="none" xmlns="http://www.w3.org/2000/svg">
<path fill-rule="evenodd" clip-rule="evenodd" d="M12.7022 0.0783266C11.9858 0.169269 10.9782 0.35028 10.4752 0.478823C10.2381 0.53916 9.93125 0.615237 9.7929 0.648029C8.38784 0.980756 6.23541 2.08912 4.90793 3.16294C3.2365 4.51527 1.57068 6.826 0.890127 8.7371C0.840131 8.87701 0.773325 9.05758 0.741862 9.1376C0.63325 9.41611 0.324652 10.524 0.275087 10.8139C0.247503 10.9739 0.196214 11.2691 0.161302 11.4697C-0.0537675 12.69 -0.0537675 15.3492 0.161302 16.5704C0.196214 16.7711 0.247503 17.0662 0.275087 17.2262C0.335427 17.5804 0.657385 18.708 0.748327 18.8833C0.7841 18.9528 0.813409 19.0599 0.813409 19.1212C0.813409 19.1824 0.842285 19.289 0.877196 19.359C0.912538 19.4285 1.02848 19.6821 1.13494 19.9226C1.24183 20.1631 1.36423 20.4254 1.40733 20.5054C1.45 20.5859 1.5974 20.8644 1.73446 21.125C2.48699 22.5534 3.87438 24.1921 5.15963 25.1693C5.47556 25.4097 5.74493 25.631 5.75829 25.6611C5.77122 25.6913 5.81088 25.7158 5.84665 25.7158C5.88199 25.7158 6.09749 25.8373 6.32549 25.986C7.26077 26.5955 8.86409 27.3313 9.86445 27.6103C10.0425 27.6597 10.2687 27.7257 10.3674 27.7568C10.5368 27.8101 10.8502 27.8774 11.7048 28.0436C13.1034 28.3151 15.4632 28.2993 17.0122 28.0082C17.8233 27.8556 18.0595 27.7987 18.9517 27.5395C19.7917 27.2955 21.3351 26.5723 22.1683 26.0319C22.4363 25.8579 22.6842 25.7158 22.7191 25.7158C22.754 25.7158 22.7936 25.6913 22.8066 25.6611C22.8199 25.631 23.0126 25.4692 23.2346 25.3013C24.2207 24.5563 25.446 23.3006 25.9236 22.5451C25.9994 22.4253 26.1024 22.2836 26.1524 22.2303C26.6589 21.6929 27.7665 19.2733 28.1264 17.9188C28.4337 16.761 28.6092 15.0878 28.6113 13.2952C28.6139 10.8393 28.8083 9.65702 29.3841 8.59107C29.7935 7.83292 30.7159 6.91519 31.0689 6.91519C31.1245 6.91519 31.2012 6.8859 31.2387 6.85048C31.462 6.63886 32.2822 6.55098 34.0411 6.54967C35.0263 6.54923 35.8733 6.52213 35.9233 6.49021C35.9939 6.44474 36.0099 5.83044 35.9948 3.66749L35.9763 0.903368L33.6415 0.881507C30.9913 0.856585 29.6112 0.953211 28.6492 1.23172C28.5307 1.26626 28.2881 1.3336 28.1105 1.38169C27.9325 1.42979 27.6484 1.53122 27.4786 1.60686C27.3092 1.68294 27.0343 1.7988 26.8683 1.86439C26.702 1.93041 26.48 2.04408 26.3753 2.11797C26.2705 2.19143 26.1645 2.25133 26.1404 2.25133C26.0964 2.25133 25.5223 2.61597 25.4525 2.68811C25.4327 2.70823 25.2228 2.88924 24.9861 3.08948C24.7491 3.28973 24.4858 3.53589 24.4008 3.63601C24.3155 3.73614 24.1741 3.9001 24.0862 4.00022C23.8031 4.32377 23.3768 4.92888 23.179 5.28916C23.0734 5.48197 22.9324 5.73818 22.8665 5.85842C22.5325 6.46791 22.1243 7.75728 21.8635 9.02829C21.7329 9.66533 21.6911 11.3211 21.7894 11.9795C22.0571 13.7709 21.9769 15.6159 21.5735 16.9831C20.8774 19.3389 19.3073 21.3038 17.4609 22.1297C16.3355 22.6334 15.758 22.7449 14.2822 22.7449C12.8134 22.7449 12.2121 22.6251 11.0307 22.0965C9.96186 21.6181 8.38999 20.1185 7.87279 19.0844C7.80297 18.9445 7.7284 18.8129 7.70728 18.7932C7.62195 18.7119 7.13491 17.5327 7.13491 17.4068C7.13491 17.3325 7.10259 17.2512 7.06294 17.2262C7.02372 17.2017 6.99139 17.1007 6.99139 17.0024C6.99139 16.904 6.96165 16.7667 6.92545 16.6972C6.88924 16.6277 6.82244 16.3247 6.77718 16.0239C6.73236 15.7235 6.66469 15.2998 6.62762 15.083C6.54142 14.5775 6.54099 13.4665 6.62676 12.9572C6.6634 12.7403 6.73106 12.3333 6.77718 12.0526C6.8233 11.7719 6.88967 11.4439 6.92458 11.3237C8.13182 7.16397 11.0669 5.05743 15.1197 5.44262C16.9544 5.61707 18.063 6.11857 19.4004 7.37952C19.6331 7.59901 19.634 7.59901 19.634 7.42674C19.634 7.13161 20.1697 5.61357 20.4955 4.98485C20.7563 4.48204 21.0899 3.89966 21.1425 3.85463C21.1662 3.83451 21.2632 3.70335 21.358 3.563C21.4532 3.42265 21.7398 3.08642 21.9959 2.81535C22.5467 2.23165 22.6006 2.32347 21.3222 1.67463C20.3033 1.15739 19.418 0.801057 18.772 0.648029C18.6336 0.615237 18.3267 0.53916 18.0897 0.478823C16.4196 0.0529677 14.2008 -0.111866 12.7022 0.0783266Z" fill="white"/>
<path fill-rule="evenodd" clip-rule="evenodd" d="M0.479761 29.8869C0.534067 31.0714 0.650868 31.8041 0.958604 32.8937C1.00386 33.0537 1.05817 33.2758 1.07929 33.3865C1.09997 33.4971 1.14609 33.6055 1.181 33.6274C1.21591 33.6492 1.24436 33.7314 1.24436 33.8097C1.24436 33.9527 1.2616 33.9981 1.48356 34.448C1.54951 34.5814 1.60381 34.737 1.60381 34.7943C1.60381 34.8512 1.63614 34.8975 1.67536 34.8975C1.71501 34.8975 1.74734 34.9438 1.74734 35.0002C1.74734 35.1104 2.18739 35.9753 2.40505 36.2931C2.47789 36.3998 2.53736 36.52 2.53736 36.5607C2.53736 36.6009 2.56366 36.6451 2.59555 36.6586C2.62744 36.6718 2.78002 36.8794 2.93432 37.1199C3.08861 37.3604 3.233 37.5738 3.25498 37.5939C3.27696 37.6135 3.45583 37.8269 3.65237 38.0669C4.89538 39.585 7.00384 41.124 8.89464 41.894C9.57994 42.1729 10.0321 42.3303 10.1484 42.3303C10.2247 42.3303 10.307 42.3631 10.3316 42.4033C10.3557 42.4431 10.4691 42.4759 10.5829 42.4759C10.6967 42.4759 10.81 42.5087 10.8342 42.5489C10.8587 42.5891 10.9794 42.6219 11.1027 42.6219C11.2259 42.6219 11.4263 42.6525 11.5475 42.6901C12.8793 43.1033 16.5475 43.1033 17.8789 42.6901C18.0004 42.6525 18.2004 42.6219 18.3237 42.6219C18.4469 42.6219 18.568 42.5891 18.5922 42.5489C18.6168 42.5087 18.7297 42.4759 18.8439 42.4759C18.9577 42.4759 19.0706 42.4431 19.0952 42.4033C19.1197 42.3631 19.1934 42.3303 19.2594 42.3303C19.3615 42.3303 20.0425 42.0973 20.5317 41.8948C21.4084 41.5324 23.2836 40.4415 23.6789 40.0646C23.7655 39.982 23.9263 39.86 24.0357 39.7935C24.7176 39.3817 26.6489 37.0521 27.2191 35.9543C27.8695 34.7012 28.0397 34.3055 28.3522 33.3143C28.4561 32.9851 28.5414 32.6554 28.5414 32.582C28.5414 32.509 28.5703 32.418 28.6061 32.38C28.6419 32.3419 28.691 32.1465 28.7151 31.9462C28.7397 31.746 28.7906 31.3525 28.8285 31.0718C28.866 30.7911 28.9181 30.2258 28.944 29.8148L28.991 29.068H25.7145H22.438L22.404 29.232C22.385 29.322 22.3535 29.6416 22.3337 29.9424C22.157 32.6594 20.7993 35.1222 18.7422 36.4571C18.5198 36.6014 18.3064 36.7194 18.2676 36.7194C18.2289 36.7194 18.1974 36.7522 18.1974 36.792C18.1974 36.8322 18.1353 36.865 18.0595 36.865C17.984 36.865 17.9112 36.893 17.8978 36.9271C17.8659 37.0097 17.0945 37.3057 16.6889 37.3905C15.4997 37.6402 12.7875 37.5851 12.4146 37.3035C12.375 37.2738 12.2504 37.227 12.1375 37.1995C11.0815 36.9433 9.32651 35.5455 8.56018 34.351C8.15203 33.7144 7.56586 32.502 7.56586 32.2934C7.56586 32.2073 7.53354 32.1168 7.49389 32.0918C7.45467 32.0674 7.42234 31.9572 7.42234 31.847C7.42234 31.7373 7.39519 31.6161 7.36243 31.5781C7.28744 31.4907 7.15383 30.7723 7.03875 29.8331L6.9491 29.1043L3.69547 29.0855L0.441833 29.0663L0.479761 29.8869Z" fill="white"/>
</svg>
