<svg width="20" height="20" viewBox="0 0 20 20" fill="none" xmlns="http://www.w3.org/2000/svg">
<path d="M12.0976 2.67625C12.3376 1.67805 11.7229 0.674346 10.7247 0.43442C9.72645 0.194494 8.72275 0.809199 8.48283 1.8074C8.2429 2.8056 8.8576 3.80931 9.85581 4.04923C10.854 4.28916 11.8577 3.67445 12.0976 2.67625Z" fill="#3B4BA2"/>
<path d="M19.1681 9.36297C19.0029 9.15642 18.7344 9.0325 18.4659 9.0325H16.5657C16.0493 9.0325 15.6362 9.44558 15.6362 9.96194C15.6362 10.4783 16.0493 10.8914 16.5657 10.8914H17.3712L16.3178 16.9638L12.662 17.253C12.662 17.191 12.6413 17.1084 12.6207 17.0464L11.6912 14.1754C11.4021 13.308 10.989 12.5024 10.4106 11.7795L9.5225 10.6022L10.6792 7.35949C10.8031 7.54538 10.927 7.75192 11.0922 7.97912C11.5053 8.64006 12.3522 8.90857 13.0751 8.59875L14.7894 7.87585C15.2231 7.68996 15.409 7.21491 15.2438 6.78116C15.0579 6.34742 14.5828 6.16153 14.1491 6.32677L12.4967 7.02902C11.0303 4.71572 10.8031 4.67441 10.452 4.5918L9.06811 4.3646C8.84091 4.32329 8.61371 4.28198 6.38303 4.96358C5.80471 5.14947 5.32966 5.5419 5.0405 6.07891L4.11105 7.79323C3.88385 8.20632 4.04908 8.70202 4.46217 8.92922C4.5861 8.99119 4.73068 9.0325 4.85461 9.0325C5.14377 9.0325 5.45358 8.86726 5.59817 8.59875L6.52761 6.88444C6.61023 6.73986 6.73416 6.63658 6.89939 6.57462C7.06463 6.53331 7.18855 6.492 7.33314 6.45069L6.58958 9.23904L5.82536 11.9241L2.19019 11.8002C1.63252 11.8002 1.17812 12.2133 1.15747 12.7709C1.13681 13.3286 1.57056 13.783 2.12822 13.8037L5.7634 13.9276C5.78405 13.9276 5.80471 13.9276 5.82536 13.9276C6.7135 13.9276 7.51903 13.3286 7.76688 12.4611L7.95277 11.8415L8.86156 12.9981C9.27465 13.5145 9.60512 14.1135 9.79101 14.7538L10.6378 17.3769L0.847651 18.1617C0.351945 18.2031 -0.0198341 18.6161 0.000820266 19.1118C0.0214747 19.6076 0.434563 20 0.930269 20H16.8961C17.3505 20 17.7223 19.6695 17.8049 19.2358L18.0115 17.9965C18.0115 17.9759 18.0115 17.9759 18.0115 17.9552L19.354 10.1272C19.416 9.83802 19.3333 9.56951 19.1681 9.36297Z" fill="#4B4B4B"/>
</svg>
