<svg width="48" height="48" viewBox="0 0 48 48" fill="none" xmlns="http://www.w3.org/2000/svg">
<path d="M28.1953 9.35244C28.6751 7.35603 27.4457 5.34863 25.4493 4.86878C23.4529 4.38893 21.4455 5.61834 20.9657 7.61474C20.4858 9.61115 21.7152 11.6185 23.7116 12.0984C25.708 12.5783 27.7154 11.3488 28.1953 9.35244Z" fill="#596CD4"/>
<path d="M42.3362 22.7261C42.0058 22.313 41.4687 22.0651 40.9317 22.0651H37.1313C36.0986 22.0651 35.2724 22.8913 35.2724 23.924C35.2724 24.9567 36.0986 25.7829 37.1313 25.7829H38.7424L36.6356 37.9277L29.3239 38.506C29.3239 38.3821 29.2826 38.2169 29.2413 38.0929L27.3824 32.351C26.8041 30.616 25.9779 29.005 24.8213 27.5592L23.045 25.2046L25.3583 18.7191C25.6062 19.0909 25.854 19.504 26.1845 19.9584C27.0107 21.2802 28.7043 21.8173 30.1501 21.1976L33.5788 19.7518C34.4462 19.38 34.818 18.4299 34.4875 17.5625C34.1158 16.695 33.1657 16.3232 32.2982 16.6537L28.9935 18.0582C26.0606 13.4316 25.6062 13.349 24.9039 13.1837L22.1362 12.7293C21.6818 12.6467 21.2274 12.5641 16.7661 13.9273C15.6094 14.2991 14.6593 15.0839 14.081 16.158L12.2221 19.5866C11.7677 20.4128 12.0982 21.4042 12.9243 21.8586C13.1722 21.9825 13.4614 22.0651 13.7092 22.0651C14.2875 22.0651 14.9072 21.7346 15.1963 21.1976L17.0552 17.769C17.2205 17.4798 17.4683 17.2733 17.7988 17.1494C18.1293 17.0667 18.3771 16.9841 18.6663 16.9015L17.1792 22.4782L15.6507 27.8483L8.38038 27.6005C7.26504 27.6005 6.35624 28.4267 6.31493 29.542C6.27363 30.6573 7.14111 31.5661 8.25645 31.6075L15.5268 31.8553C15.5681 31.8553 15.6094 31.8553 15.6507 31.8553C17.427 31.8553 19.0381 30.6573 19.5338 28.9224L19.9055 27.6831L21.7231 29.9964C22.5493 31.0291 23.2102 32.2271 23.582 33.5077L25.2757 38.7539L5.6953 40.3236C4.70389 40.4062 3.96033 41.2324 4.00164 42.2238C4.04295 43.2152 4.86913 44.0001 5.86054 44.0001H37.7923C38.701 44.0001 39.4446 43.3392 39.6098 42.4717L40.0229 39.9931C40.0229 39.9518 40.0229 39.9518 40.0229 39.9105L42.708 24.2545C42.8319 23.6762 42.6667 23.1391 42.3362 22.7261Z" fill="#596CD4"/>
</svg>
