<svg width="24" height="24" viewBox="0 0 24 24" fill="none" xmlns="http://www.w3.org/2000/svg">
<path d="M10.93 17.63L9.3 13.54C9.15152 13.1805 8.95289 12.8438 8.71 12.54C9.27718 12.276 9.77336 11.8808 10.1575 11.387C10.5416 10.8932 10.8026 10.315 10.9189 9.70033C11.0352 9.08563 11.0034 8.45207 10.8262 7.85208C10.6491 7.2521 10.3316 6.70292 9.9 6.25C9.52675 5.85575 9.07715 5.5416 8.57858 5.3267C8.08001 5.1118 7.54291 5.00064 7 5H5C4.46957 5 3.96086 5.21071 3.58579 5.58579C3.21071 5.96086 3 6.46957 3 7V18C3 18.2652 3.10536 18.5196 3.29289 18.7071C3.48043 18.8946 3.73478 19 4 19C4.26522 19 4.51957 18.8946 4.70711 18.7071C4.89464 18.5196 5 18.2652 5 18V13H5.42C5.84418 12.9902 6.26154 13.1079 6.6181 13.3379C6.97465 13.5679 7.254 13.8995 7.42 14.29L9.05 18.37C9.12533 18.5593 9.25667 18.721 9.42644 18.8336C9.59622 18.9462 9.79633 19.0043 10 19C10.1267 19.0003 10.2522 18.9766 10.37 18.93C10.4922 18.8815 10.6036 18.8094 10.698 18.7178C10.7923 18.6262 10.8676 18.5169 10.9196 18.3961C10.9716 18.2754 10.9993 18.1456 11.0011 18.0141C11.0029 17.8826 10.9787 17.7521 10.93 17.63ZM5 7H7C7.27216 6.99959 7.54154 7.05473 7.79166 7.16205C8.04177 7.26936 8.26734 7.4266 8.45457 7.62413C8.6418 7.82165 8.78675 8.05532 8.88053 8.31081C8.97432 8.5663 9.01497 8.83825 9 9.11C8.94015 9.63932 8.68413 10.127 8.28243 10.4769C7.88074 10.8267 7.36253 11.0134 6.83 11H5V7Z" fill="#4B4B4B"/>
<path d="M17.5 11H16.5C16.1022 11 15.7206 10.842 15.4393 10.5607C15.158 10.2794 15 9.89782 15 9.5C15 9.10218 15.158 8.72064 15.4393 8.43934C15.7206 8.15804 16.1022 8 16.5 8H20C20.2652 8 20.5196 7.89464 20.7071 7.70711C20.8946 7.51957 21 7.26522 21 7C21 6.73478 20.8946 6.48043 20.7071 6.29289C20.5196 6.10536 20.2652 6 20 6H19V4C19 3.73478 18.8946 3.48043 18.7071 3.29289C18.5196 3.10536 18.2652 3 18 3C17.7348 3 17.4804 3.10536 17.2929 3.29289C17.1054 3.48043 17 3.73478 17 4V6H16.5C15.5717 6 14.6815 6.36875 14.0251 7.02513C13.3687 7.6815 13 8.57174 13 9.5C13 10.4283 13.3687 11.3185 14.0251 11.9749C14.6815 12.6313 15.5717 13 16.5 13H17.5C17.8978 13 18.2794 13.158 18.5607 13.4393C18.842 13.7206 19 14.1022 19 14.5C19 14.8978 18.842 15.2794 18.5607 15.5607C18.2794 15.842 17.8978 16 17.5 16H14C13.7348 16 13.4804 16.1054 13.2929 16.2929C13.1054 16.4804 13 16.7348 13 17C13 17.2652 13.1054 17.5196 13.2929 17.7071C13.4804 17.8946 13.7348 18 14 18H15V20C15 20.2652 15.1054 20.5196 15.2929 20.7071C15.4804 20.8946 15.7348 21 16 21C16.2652 21 16.5196 20.8946 16.7071 20.7071C16.8946 20.5196 17 20.2652 17 20V18H17.5C18.4283 18 19.3185 17.6313 19.9749 16.9749C20.6313 16.3185 21 15.4283 21 14.5C21 13.5717 20.6313 12.6815 19.9749 12.0251C19.3185 11.3687 18.4283 11 17.5 11Z" fill="#4B4B4B"/>
</svg>
