<svg width="21" height="21" viewBox="0 0 21 21" fill="none" xmlns="http://www.w3.org/2000/svg">
<path d="M13.5184 15.3631C11.8486 16.6461 9.74715 17.2514 7.64202 17.0557C5.53688 16.86 3.5863 15.878 2.18745 14.3097C0.788603 12.7415 0.0466616 10.7048 0.112701 8.61444C0.178741 6.52408 1.0478 4.53721 2.54291 3.05838C4.03803 1.57956 6.04678 0.719969 8.16017 0.654649C10.2735 0.589329 12.3326 1.32319 13.9182 2.7068C15.5037 4.09041 16.4965 6.01974 16.6944 8.10194C16.8922 10.1841 16.2803 12.2626 14.9832 13.9142L19.8023 18.663C20.2102 19.065 20.2108 19.718 19.8037 20.1207C19.3964 20.5235 18.7359 20.5232 18.3291 20.1201L13.5287 15.3631H13.5184ZM8.4278 15.0343C9.24637 15.0343 10.0569 14.8748 10.8132 14.565C11.5695 14.2551 12.2566 13.801 12.8354 13.2285C13.4142 12.656 13.8734 11.9763 14.1866 11.2283C14.4999 10.4803 14.6611 9.67854 14.6611 8.86888C14.6611 8.05923 14.4999 7.2575 14.1866 6.50948C13.8734 5.76146 13.4142 5.08179 12.8354 4.50927C12.2566 3.93676 11.5695 3.48262 10.8132 3.17278C10.0569 2.86294 9.24637 2.70347 8.4278 2.70347C6.77462 2.70347 5.18915 3.35304 4.02017 4.50927C2.8512 5.66551 2.19447 7.23371 2.19447 8.86888C2.19447 10.5041 2.8512 12.0723 4.02017 13.2285C5.18915 14.3847 6.77462 15.0343 8.4278 15.0343Z" fill="#6E6893"/>
</svg>
