<svg width="32" height="32" viewBox="0 0 32 32" fill="none" xmlns="http://www.w3.org/2000/svg">
<path d="M22.6667 29.3337H9.33333C7.86057 29.3337 6.66667 28.1398 6.66667 26.667V9.33366H4V6.66699H9.33333V5.33366C9.33333 3.8609 10.5272 2.66699 12 2.66699H20C21.4728 2.66699 22.6667 3.8609 22.6667 5.33366V6.66699H28V9.33366H25.3333V26.667C25.3333 28.1398 24.1394 29.3337 22.6667 29.3337ZM9.33333 9.33366V26.667H22.6667V9.33366H9.33333ZM12 5.33366V6.66699H20V5.33366H12ZM20 24.0003H17.3333V12.0003H20V24.0003ZM14.6667 24.0003H12V12.0003H14.6667V24.0003Z" fill="#FF6868"/>
</svg>
